  0
SECTION
  2
HEADER
  9
$ACADVER
  1
AC1009
  9
$INSBASE
 10
0.0
 20
0.0
 30
0.0
  9
$EXTMIN
 10
0.0
 20
0.0
 30
0.0
  9
$EXTMAX
 10
0.0
 20
0.0
 30
0.0
  0
ENDSEC
  0
SECTION
  2
TABLES
  0
TABLE
  2
VPORT
 70
0
  0
ENDTAB
  0
TABLE
  2
LTYPE
 70
1
  0
LTYPE
  2
CONTINUOUS
 70
0
  3
Solid line
 72
65
 73
0
 40
0.0
  0
ENDTAB
  0
TABLE
  2
LAYER
 70
1
  0
LAYER
  2
0
 70
64
 62
7
  6
continuous
  0
ENDTAB
  0
TABLE
  2
STYLE
 70
1
  0
STYLE
  2
STANDARD
 70
0
 40
0
 41
1.0
 50
0.0
 71
0
 42
1
 3
ARIAL.TTF
 4

  0
ENDTAB
  0
TABLE
  2
VIEW
 70
0
  0
ENDTAB
  0
ENDSEC
  0
SECTION
  2
BLOCKS
  0
BLOCK
  8
0
  2
UNFOLD_SKETCH
 70
0
 10
0.0
 20
0.0
 30
0.0
  3
UNFOLD_SKETCH
  0
LINE
  8
0
 62
174
 10
-88.00000000000001
 20
73.58261014542906
 30
0.0
 11
-88.00000000000001
 21
64.58261014542906
 31
0.0
  0
LINE
  8
0
 62
174
 10
-88.00000000000001
 20
64.58261014542906
 30
0.0
 11
-88.00000000000001
 21
61.79130507271452
 31
0.0
  0
LINE
  8
0
 62
174
 10
-88.00000000000001
 20
61.79130507271452
 30
0.0
 11
-88.00000000000001
 21
57.89130507271452
 31
0.0
  0
LINE
  8
0
 62
174
 10
-88.00000000000001
 20
57.89130507271452
 30
0.0
 11
-89.00000000000001
 21
57.89130507271452
 31
0.0
  0
LINE
  8
0
 62
174
 10
-89.00000000000001
 20
57.89130507271452
 30
0.0
 11
-89.00000000000001
 21
61.79130507271452
 31
0.0
  0
LINE
  8
0
 62
174
 10
-89.00000000000001
 20
61.79130507271452
 30
0.0
 11
-90.00000000000001
 21
61.79130507271452
 31
0.0
  0
ARC
  8
0
 62
174
 10
-89.99999999999999
 20
51.7913050727145
 30
0.0
 40
10.000000000000025
 50
90.00000000000017
 51
180.0
  0
LINE
  8
0
 62
174
 10
-100.00000000000001
 20
51.79130507271454
 30
0.0
 11
-100.00000000000001
 21
21.7913050727145
 31
0.0
  0
ARC
  8
0
 62
174
 10
-89.99999999999999
 20
21.791305072714543
 30
0.0
 40
10.000000000000027
 50
-180.0
 51
-90.00000000000017
  0
LINE
  8
0
 62
174
 10
-90.00000000000001
 20
11.791305072714522
 30
0.0
 11
-89.00000000000001
 21
11.791305072714522
 31
0.0
  0
LINE
  8
0
 62
174
 10
-89.00000000000001
 20
11.791305072714522
 30
0.0
 11
-89.00000000000001
 21
15.69130507271452
 31
0.0
  0
LINE
  8
0
 62
174
 10
-89.00000000000001
 20
15.69130507271452
 30
0.0
 11
-88.00000000000001
 21
15.69130507271452
 31
0.0
  0
LINE
  8
0
 62
174
 10
-88.00000000000001
 20
15.69130507271452
 30
0.0
 11
-88.00000000000001
 21
11.791305072714522
 31
0.0
  0
LINE
  8
0
 62
174
 10
-88.00000000000001
 20
11.791305072714522
 30
0.0
 11
-88.00000000000001
 21
8.999999999999996
 31
0.0
  0
LINE
  8
0
 62
174
 10
-88.00000000000001
 20
8.999999999999996
 30
0.0
 11
-88.00000000000001
 21
-7.105427357601002e-15
 31
0.0
  0
LINE
  8
0
 62
174
 10
-88.00000000000001
 20
-7.105427357601002e-15
 30
0.0
 11
-12.0
 21
-7.105427357601002e-15
 31
0.0
  0
LINE
  8
0
 62
174
 10
-12.0
 20
-7.105427357601002e-15
 30
0.0
 11
-12.0
 21
8.999999999999991
 31
0.0
  0
LINE
  8
0
 62
174
 10
-12.0
 20
8.999999999999991
 30
0.0
 11
-12.0
 21
11.791305072714522
 31
0.0
  0
LINE
  8
0
 62
174
 10
-12.0
 20
11.791305072714522
 30
0.0
 11
-12.0
 21
15.69130507271452
 31
0.0
  0
LINE
  8
0
 62
174
 10
-12.0
 20
15.69130507271452
 30
0.0
 11
-11.0
 21
15.69130507271452
 31
0.0
  0
LINE
  8
0
 62
174
 10
-11.0
 20
15.69130507271452
 30
0.0
 11
-11.0
 21
11.791305072714522
 31
0.0
  0
LINE
  8
0
 62
174
 10
-11.0
 20
11.791305072714522
 30
0.0
 11
-10.0
 21
11.791305072714522
 31
0.0
  0
ARC
  8
0
 62
174
 10
-10.000000000000004
 20
21.791305072714525
 30
0.0
 40
10.000000000000004
 50
-89.99999999999999
 51
-0.0
  0
LINE
  8
0
 62
174
 10
-4.440892098500626e-16
 20
21.791305072714508
 30
0.0
 11
-2.6645352591003757e-15
 21
51.79130507271454
 31
0.0
  0
ARC
  8
0
 62
174
 10
-9.999999999999996
 20
51.79130507271452
 30
0.0
 40
9.999999999999996
 50
0.0
 51
90.00000000000003
  0
LINE
  8
0
 62
174
 10
-10.0
 20
61.79130507271452
 30
0.0
 11
-11.0
 21
61.79130507271452
 31
0.0
  0
LINE
  8
0
 62
174
 10
-11.0
 20
61.79130507271452
 30
0.0
 11
-11.0
 21
57.89130507271452
 31
0.0
  0
LINE
  8
0
 62
174
 10
-11.0
 20
57.89130507271452
 30
0.0
 11
-12.0
 21
57.89130507271452
 31
0.0
  0
LINE
  8
0
 62
174
 10
-12.0
 20
57.89130507271452
 30
0.0
 11
-12.0
 21
61.79130507271452
 31
0.0
  0
LINE
  8
0
 62
174
 10
-12.0
 20
61.79130507271452
 30
0.0
 11
-12.0
 21
64.58261014542906
 31
0.0
  0
LINE
  8
0
 62
174
 10
-12.0
 20
64.58261014542906
 30
0.0
 11
-12.0
 21
73.58261014542906
 31
0.0
  0
LINE
  8
0
 62
174
 10
-12.0
 20
73.58261014542906
 30
0.0
 11
-88.00000000000001
 21
73.58261014542906
 31
0.0
  0
ENDBLK
  0
BLOCK
  8
0
  2
UNFOLD_SKETCH_BENDS
 70
0
 10
0.0
 20
0.0
 30
0.0
  3
UNFOLD_SKETCH_BENDS
  0
LINE
  8
0
 62
12
 10
-12.0
 20
10.395652536357256
 30
0.0
 11
-88.00000000000001
 21
10.395652536357256
 31
0.0
  0
LINE
  8
0
 62
12
 10
-88.00000000000001
 20
63.18695760907179
 30
0.0
 11
-12.0
 21
63.18695760907179
 31
0.0
  0
ENDBLK
  0
BLOCK
  8
0
  2
UNFOLD_SKETCH_HOLES
 70
0
 10
0.0
 20
0.0
 30
0.0
  3
UNFOLD_SKETCH_HOLES
  0
CIRCLE
  8
0
 62
20
 10
-58.50000000000001
 20
53.64130507271452
 30
0.0
 40
1.2
  0
CIRCLE
  8
0
 62
20
 10
-84.5
 20
20.641305072714516
 30
0.0
 40
1.2
  0
CIRCLE
  8
0
 62
20
 10
-14.499999999999998
 20
53.141305072714516
 30
0.0
 40
1.2
  0
CIRCLE
  8
0
 62
20
 10
-14.5
 20
32.641305072714516
 30
0.0
 40
1.2
  0
CIRCLE
  8
0
 62
20
 10
-81.0
 20
4.500000000000005
 30
0.0
 40
0.83
  0
CIRCLE
  8
0
 62
20
 10
-50.0
 20
4.500000000000005
 30
0.0
 40
0.83
  0
CIRCLE
  8
0
 62
20
 10
-19.0
 20
4.500000000000005
 30
0.0
 40
0.83
  0
CIRCLE
  8
0
 62
20
 10
-81.0
 20
69.08261014542906
 30
0.0
 40
0.83
  0
CIRCLE
  8
0
 62
20
 10
-50.0
 20
69.08261014542906
 30
0.0
 40
0.83
  0
CIRCLE
  8
0
 62
20
 10
-19.0
 20
69.08261014542906
 30
0.0
 40
0.83
  0
ENDBLK
  0
ENDSEC
  0
SECTION
  2
ENTITIES
  0
INSERT
  2
UNFOLD_SKETCH
  8
0
 62
174
 10
0.0
 20
0.0
 30
0.0
  0
INSERT
  2
UNFOLD_SKETCH_BENDS
  8
0
 62
12
 10
0.0
 20
0.0
 30
0.0
  0
INSERT
  2
UNFOLD_SKETCH_HOLES
  8
0
 62
20
 10
0.0
 20
0.0
 30
0.0
  0
ENDSEC
  0
EOF
