  0
SECTION
  2
HEADER
  9
$ACADVER
  1
AC1009
  9
$INSBASE
 10
0.0
 20
0.0
 30
0.0
  9
$EXTMIN
 10
0.0
 20
0.0
 30
0.0
  9
$EXTMAX
 10
0.0
 20
0.0
 30
0.0
  0
ENDSEC
  0
SECTION
  2
TABLES
  0
TABLE
  2
VPORT
 70
0
  0
ENDTAB
  0
TABLE
  2
LTYPE
 70
1
  0
LTYPE
  2
CONTINUOUS
 70
0
  3
Solid line
 72
65
 73
0
 40
0.0
  0
ENDTAB
  0
TABLE
  2
LAYER
 70
1
  0
LAYER
  2
0
 70
64
 62
7
  6
continuous
  0
ENDTAB
  0
TABLE
  2
STYLE
 70
1
  0
STYLE
  2
STANDARD
 70
0
 40
0
 41
1.0
 50
0.0
 71
0
 42
1
 3
ARIAL.TTF
 4

  0
ENDTAB
  0
TABLE
  2
VIEW
 70
0
  0
ENDTAB
  0
ENDSEC
  0
SECTION
  2
BLOCKS
  0
BLOCK
  8
0
  2
UNFOLD_SKETCH001
 70
0
 10
0.0
 20
0.0
 30
0.0
  3
UNFOLD_SKETCH001
  0
LINE
  8
0
 62
174
 10
11.999999999999968
 20
119.5154951673388
 30
0.0
 11
11.999999999999979
 21
89.51549516733877
 31
0.0
  0
LINE
  8
0
 62
174
 10
11.999999999999979
 20
89.51549516733877
 30
0.0
 11
11.999999999999979
 21
87.11374758366938
 31
0.0
  0
LINE
  8
0
 62
174
 10
11.999999999999979
 20
87.11374758366938
 30
0.0
 11
11.99999999999998
 21
84.11374758366938
 31
0.0
  0
LINE
  8
0
 62
174
 10
11.99999999999998
 20
84.11374758366938
 30
0.0
 11
11.199999999999983
 21
84.11374758366938
 31
0.0
  0
LINE
  8
0
 62
174
 10
11.199999999999983
 20
84.11374758366938
 30
0.0
 11
11.199999999999982
 21
86.35774758366938
 31
0.0
  0
LINE
  8
0
 62
174
 10
11.199999999999982
 20
86.35774758366938
 30
0.0
 11
9.999999999999979
 21
86.35774758366938
 31
0.0
  0
ARC
  8
0
 62
174
 10
9.999999999999932
 20
76.35774758366944
 30
0.0
 40
9.999999999999945
 50
89.99999999999973
 51
-180.0
  0
LINE
  8
0
 62
174
 10
-1.660194883047842e-14
 20
76.35774758366941
 30
0.0
 11
-6.232410866425437e-15
 21
43.15774758366937
 31
0.0
  0
ARC
  8
0
 62
174
 10
10.0
 20
43.15774758366939
 30
0.0
 40
10.000000000000007
 50
-180.0
 51
-90.00000000000003
  0
LINE
  8
0
 62
174
 10
9.999999999999996
 20
33.157747583669384
 30
0.0
 11
11.199999999999996
 21
33.157747583669384
 31
0.0
  0
LINE
  8
0
 62
174
 10
11.199999999999996
 20
33.157747583669384
 30
0.0
 11
11.199999999999996
 21
35.40174758366938
 31
0.0
  0
LINE
  8
0
 62
174
 10
11.199999999999996
 20
35.40174758366938
 30
0.0
 11
11.999999999999996
 21
35.40174758366938
 31
0.0
  0
LINE
  8
0
 62
174
 10
11.999999999999996
 20
35.40174758366938
 30
0.0
 11
12.000000000000004
 21
32.40174758366939
 31
0.0
  0
LINE
  8
0
 62
174
 10
12.000000000000004
 20
32.40174758366939
 30
0.0
 11
11.999999999999996
 21
29.99999999999999
 31
0.0
  0
LINE
  8
0
 62
174
 10
11.999999999999996
 20
29.99999999999999
 30
0.0
 11
12.000000000000007
 21
-7.105427357601002e-15
 31
0.0
  0
LINE
  8
0
 62
174
 10
12.000000000000007
 20
-5.724958802147293e-15
 30
0.0
 11
88.0
 21
1.72288634309282e-14
 31
0.0
  0
LINE
  8
0
 62
174
 10
88.0
 20
1.7228863430928203e-14
 30
0.0
 11
88.0
 21
30.000000000000018
 31
0.0
  0
LINE
  8
0
 62
174
 10
88.0
 20
30.000000000000018
 30
0.0
 11
88.0
 21
32.40174758366941
 31
0.0
  0
LINE
  8
0
 62
174
 10
88.0
 20
32.40174758366941
 30
0.0
 11
87.99999999999999
 21
35.40174758366941
 31
0.0
  0
LINE
  8
0
 62
174
 10
87.99999999999999
 20
35.40174758366941
 30
0.0
 11
88.79999999999998
 21
35.40174758366941
 31
0.0
  0
LINE
  8
0
 62
174
 10
88.79999999999998
 20
35.40174758366941
 30
0.0
 11
88.79999999999998
 21
33.15774758366941
 31
0.0
  0
LINE
  8
0
 62
174
 10
88.79999999999998
 20
33.15774758366941
 30
0.0
 11
90.0
 21
33.15774758366941
 31
0.0
  0
ARC
  8
0
 62
174
 10
90.00000000000001
 20
43.157747583669405
 30
0.0
 40
9.99999999999999
 50
-90.00000000000009
 51
-0.0
  0
LINE
  8
0
 62
174
 10
100.0
 20
43.1577475836694
 30
0.0
 11
99.99999999999996
 21
76.35774758366944
 31
0.0
  0
ARC
  8
0
 62
174
 10
90.00000000000001
 20
76.35774758366946
 30
0.0
 40
9.999999999999941
 50
-0.0
 51
90.00000000000033
  0
LINE
  8
0
 62
174
 10
89.99999999999996
 20
86.35774758366941
 30
0.0
 11
88.79999999999997
 21
86.35774758366941
 31
0.0
  0
LINE
  8
0
 62
174
 10
88.79999999999997
 20
86.35774758366941
 30
0.0
 11
88.79999999999995
 21
84.11374758366941
 31
0.0
  0
LINE
  8
0
 62
174
 10
88.79999999999995
 20
84.11374758366941
 30
0.0
 11
87.99999999999996
 21
84.11374758366941
 31
0.0
  0
LINE
  8
0
 62
174
 10
87.99999999999996
 20
84.11374758366941
 30
0.0
 11
87.99999999999997
 21
87.11374758366941
 31
0.0
  0
LINE
  8
0
 62
174
 10
87.99999999999997
 20
87.11374758366941
 30
0.0
 11
87.99999999999997
 21
89.51549516733883
 31
0.0
  0
LINE
  8
0
 62
174
 10
87.99999999999997
 20
89.51549516733883
 30
0.0
 11
87.99999999999996
 21
119.51549516733883
 31
0.0
  0
LINE
  8
0
 62
174
 10
87.99999999999996
 20
119.51549516733883
 30
0.0
 11
11.999999999999972
 21
119.5154951673388
 31
0.0
  0
ENDBLK
  0
BLOCK
  8
0
  2
UNFOLD_SKETCH_BENDS001
 70
0
 10
0.0
 20
0.0
 30
0.0
  3
UNFOLD_SKETCH_BENDS001
  0
LINE
  8
0
 62
12
 10
12.000000000000004
 20
31.20087379183469
 30
0.0
 11
88.0
 21
31.200873791834717
 31
0.0
  0
LINE
  8
0
 62
12
 10
87.99999999999997
 20
88.31462137550412
 30
0.0
 11
11.999999999999972
 21
88.31462137550409
 31
0.0
  0
ENDBLK
  0
BLOCK
  8
0
  2
UNFOLD_SKETCH_INTERNAL
 70
0
 10
0.0
 20
0.0
 30
0.0
  3
UNFOLD_SKETCH_INTERNAL
  0
LINE
  8
0
 62
20
 10
75.99999999999996
 20
72.7077475836694
 30
0.0
 11
80.49999999999996
 21
72.7077475836694
 31
0.0
  0
ARC
  8
0
 62
20
 10
80.49999999999997
 20
73.70774758366939
 30
0.0
 40
0.9999999999999866
 50
-90.00000000000081
 51
0.0
  0
LINE
  8
0
 62
20
 10
81.49999999999996
 20
73.7077475836694
 30
0.0
 11
81.49999999999996
 21
75.50774758366947
 31
0.0
  0
ARC
  8
0
 62
20
 10
80.49999999999997
 20
75.50774758366943
 30
0.0
 40
0.9999999999999866
 50
0.0
 51
89.99999999998452
  0
LINE
  8
0
 62
20
 10
80.50000000000024
 20
76.50774758366941
 30
0.0
 11
75.99999999999967
 21
76.50774758366941
 31
0.0
  0
ARC
  8
0
 62
20
 10
75.99999999999996
 20
75.50774758366941
 30
0.0
 40
0.9999999999999994
 50
90.00000000001629
 51
180.0
  0
LINE
  8
0
 62
20
 10
74.99999999999996
 20
75.50774758366947
 30
0.0
 11
74.99999999999996
 21
73.7077475836694
 31
0.0
  0
ARC
  8
0
 62
20
 10
75.99999999999994
 20
73.70774758366939
 30
0.0
 40
0.9999999999999866
 50
180.0
 51
-89.99999999999919
  0
ENDBLK
  0
BLOCK
  8
0
  2
UNFOLD_SKETCH_HOLES001
 70
0
 10
0.0
 20
0.0
 30
0.0
  3
UNFOLD_SKETCH_HOLES001
  0
CIRCLE
  8
0
 62
20
 10
27.99999999999999
 20
58.15774758366939
 30
0.0
 40
3.8
  0
CIRCLE
  8
0
 62
20
 10
84.0
 20
58.157747583669405
 30
0.0
 40
3.8
  0
CIRCLE
  8
0
 62
20
 10
55.999999999999986
 20
58.157747583669405
 30
0.0
 40
3.8
  0
CIRCLE
  8
0
 62
20
 10
80.99999999999997
 20
112.87249516733883
 30
0.0
 40
1.2
  0
CIRCLE
  8
0
 62
20
 10
49.999999999999964
 20
112.87249516733883
 30
0.0
 40
1.2
  0
CIRCLE
  8
0
 62
20
 10
81.0
 20
6.643000000000013
 30
0.0
 40
1.2
  0
CIRCLE
  8
0
 62
20
 10
50.00000000000001
 20
6.6430000000000025
 30
0.0
 40
1.2
  0
CIRCLE
  8
0
 62
20
 10
18.99999999999997
 20
112.87249516733883
 30
0.0
 40
1.2
  0
CIRCLE
  8
0
 62
20
 10
19.000000000000004
 20
6.642999999999992
 30
0.0
 40
1.2
  0
ENDBLK
  0
ENDSEC
  0
SECTION
  2
ENTITIES
  0
INSERT
  2
UNFOLD_SKETCH001
  8
0
 62
174
 10
0.0
 20
0.0
 30
0.0
  0
INSERT
  2
UNFOLD_SKETCH_BENDS001
  8
0
 62
12
 10
0.0
 20
0.0
 30
0.0
  0
INSERT
  2
UNFOLD_SKETCH_INTERNAL
  8
0
 62
20
 10
0.0
 20
0.0
 30
0.0
  0
INSERT
  2
UNFOLD_SKETCH_HOLES001
  8
0
 62
20
 10
0.0
 20
0.0
 30
0.0
  0
ENDSEC
  0
EOF
